<svg width="134" height="190" viewBox="0 0 134 190" fill="none" xmlns="http://www.w3.org/2000/svg">
<path d="M63.6008 91.3992C63.6008 86.4109 61.1067 83.9167 56.1184 83.9167H34.9181C29.9298 83.9167 27.4357 86.4109 27.4357 91.3992V131.306C27.4357 136.294 29.9298 138.788 34.9181 138.788H56.1184C61.1067 138.788 63.6008 136.294 63.6008 131.306V91.3992ZM86.0482 131.306C86.0482 140.035 84.0529 146.395 80.0622 150.386C76.1547 154.293 69.8362 156.247 61.1067 156.247H29.9298C21.2003 156.247 14.8402 154.293 10.8496 150.386C6.94205 146.395 4.9883 140.035 4.9883 131.306V91.3992C4.9883 82.6696 6.94205 76.3511 10.8496 72.4436C14.8402 68.453 21.2003 66.4577 29.9298 66.4577H61.1067C69.8362 66.4577 76.1547 68.453 80.0622 72.4436C84.0529 76.3511 86.0482 82.6696 86.0482 91.3992V131.306Z" fill="black"/>
<path d="M85.9298 115H63.4825V27.7047H132.695V45.1638H85.9298V65.7405H122.719V83.1996H85.9298V115Z" fill="black"/>
</svg>
